<?xml version="1.0" standalone="no"?>
<!DOCTYPE svg PUBLIC "-//W3C//DTD SVG 20010904//EN"
 "http://www.w3.org/TR/2001/REC-SVG-20010904/DTD/svg10.dtd">
<svg version="1.0" xmlns="http://www.w3.org/2000/svg"
 width="474.000000pt" height="510.000000pt" viewBox="0 0 474.000000 510.000000"
 preserveAspectRatio="xMidYMid meet">
<metadata>
Created by potrace 1.16, written by Peter Selinger 2001-2019
</metadata>
<g transform="translate(0.000000,510.000000) scale(0.100000,-0.100000)"
fill="#000000" stroke="none">
<path d="M580 4100 l0 -520 428 3 427 2 460 138 c253 76 462 140 466 143 3 2
49 -9 100 -25 52 -16 195 -59 319 -96 429 -127 565 -167 640 -191 74 -24 74
-24 25 -19 -59 5 -422 51 -796 101 l-267 35 -428 -157 c-236 -86 -501 -182
-589 -214 -88 -32 -173 -63 -188 -69 -18 -7 -128 -11 -313 -11 l-284 0 0
-1365 0 -1365 1790 2 1791 3 -1 905 0 905 -421 3 -422 2 -131 -39 c-72 -22
-284 -86 -471 -142 l-340 -101 -160 46 c-207 61 -295 87 -610 181 -143 43
-278 82 -300 88 -45 11 -77 33 -35 24 14 -3 117 -17 230 -32 113 -14 353 -45
533 -69 320 -41 330 -42 375 -25 105 37 839 305 992 362 l165 62 298 5 298 5
1 970 0 970 -1791 2 -1791 3 0 -520z m1925 -635 c98 -25 164 -63 241 -139 110
-109 157 -220 158 -371 0 -152 -47 -266 -153 -375 -75 -76 -195 -135 -304
-150 -316 -41 -596 203 -597 519 0 240 154 446 385 512 76 22 193 24 270 4z
m1035 -1843 l35 -8 5 -92 c5 -89 4 -93 -15 -88 -247 68 -415 -5 -440 -192 -10
-72 9 -144 49 -186 56 -60 192 -82 330 -55 31 7 59 10 61 7 3 -3 -1 -45 -8
-93 -12 -86 -13 -89 -42 -97 -56 -16 -247 -21 -322 -9 -177 30 -288 130 -322
289 -33 157 11 322 111 419 51 49 151 99 228 112 59 11 272 6 330 -7z m-1711
-54 c0 -29 -4 -71 -7 -93 l-7 -40 -195 0 -195 0 -3 -57 -3 -58 171 0 170 0 0
-95 0 -95 -174 0 c-196 0 -186 4 -186 -82 l0 -50 203 3 c151 2 202 0 201 -9
-1 -7 -2 -48 -2 -92 l-2 -80 -335 0 -336 0 6 33 c10 62 25 314 32 540 l6 227
329 0 328 0 -1 -52z m781 17 c125 -69 187 -228 160 -415 -20 -141 -89 -242
-203 -298 -94 -45 -145 -52 -403 -52 l-235 0 6 43 c12 95 25 305 32 525 l6
233 291 -3 291 -3 55 -30z"/>
<path d="M2400 3366 c0 -2 13 -6 29 -8 17 -2 28 -1 25 4 -5 8 -54 12 -54 4z"/>
<path d="M2480 3349 c0 -5 5 -7 10 -4 6 3 10 8 10 11 0 2 -4 4 -10 4 -5 0 -10
-5 -10 -11z"/>
<path d="M2140 3300 c-8 -5 -12 -12 -9 -15 4 -3 12 1 19 10 14 17 11 19 -10 5z"/>
<path d="M2560 3292 c0 -6 5 -14 10 -17 6 -4 8 -11 5 -16 -7 -11 3 -11 30 1
12 5 14 9 6 9 -8 1 -23 8 -33 18 -10 9 -18 11 -18 5z"/>
<path d="M2600 3296 c0 -2 7 -7 16 -10 8 -3 12 -2 9 4 -6 10 -25 14 -25 6z"/>
<path d="M2188 3283 c7 -3 16 -2 19 1 4 3 -2 6 -13 5 -11 0 -14 -3 -6 -6z"/>
<path d="M2105 3270 c-3 -5 -1 -10 4 -10 6 0 11 5 11 10 0 6 -2 10 -4 10 -3 0
-8 -4 -11 -10z"/>
<path d="M2157 3269 c7 -7 15 -10 18 -7 3 3 -2 9 -12 12 -14 6 -15 5 -6 -5z"/>
<path d="M2046 3208 l-19 -33 26 24 c27 24 34 41 19 41 -4 0 -16 -15 -26 -32z"/>
<path d="M2680 3231 c0 -5 7 -15 17 -22 15 -13 15 -12 4 9 -12 23 -21 28 -21
13z"/>
<path d="M2650 3205 c0 -8 5 -15 10 -15 6 0 10 7 10 15 0 8 -4 15 -10 15 -5 0
-10 -7 -10 -15z"/>
<path d="M2733 3160 c6 -16 15 -30 19 -30 5 0 2 14 -7 30 -9 17 -17 30 -19 30
-3 0 1 -13 7 -30z"/>
<path d="M2050 3155 c0 -8 5 -15 10 -15 6 0 10 7 10 15 0 8 -4 15 -10 15 -5 0
-10 -7 -10 -15z"/>
<path d="M1960 2975 c-3 -62 1 -109 10 -118 4 -5 5 25 3 65 -5 87 -11 108 -13
53z"/>
<path d="M2742 2843 c-14 -27 -23 -85 -13 -78 5 3 12 -1 14 -7 3 -7 3 3 0 23
-3 20 0 46 6 58 7 11 9 21 7 21 -3 0 -9 -8 -14 -17z"/>
<path d="M2760 2805 c0 -8 2 -15 4 -15 2 0 6 7 10 15 3 8 1 15 -4 15 -6 0 -10
-7 -10 -15z"/>
<path d="M2015 2781 c-3 -6 -11 -9 -16 -6 -5 3 -6 -1 -3 -9 5 -14 8 -14 21 0
9 8 13 17 10 20 -3 3 -8 0 -12 -5z"/>
<path d="M2056 2745 c-9 -26 -7 -32 5 -12 6 10 9 21 6 23 -2 3 -7 -2 -11 -11z"/>
<path d="M2061 2691 c-8 -5 -9 -11 -3 -15 5 -3 12 1 16 9 6 17 6 18 -13 6z"/>
<path d="M2130 2689 c0 -5 5 -7 10 -4 6 3 10 8 10 11 0 2 -4 4 -10 4 -5 0 -10
-5 -10 -11z"/>
<path d="M2667 2662 c-15 -15 -27 -32 -27 -36 0 -7 9 1 44 42 27 32 15 27 -17
-6z"/>
<path d="M2141 2654 c0 -11 3 -14 6 -6 3 7 2 16 -1 19 -3 4 -6 -2 -5 -13z"/>
<path d="M2136 2605 c10 -8 23 -15 28 -15 6 0 1 7 -10 15 -10 8 -23 15 -28 15
-6 0 -1 -7 10 -15z"/>
<path d="M2207 2613 c-10 -9 13 -33 32 -33 14 1 14 2 -2 14 -14 11 -15 15 -5
19 9 4 8 6 -3 6 -9 1 -19 -2 -22 -6z"/>
<path d="M2524 2613 c15 -4 16 -7 5 -15 -10 -6 -7 -7 10 -3 15 5 26 2 32 -6 4
-7 12 -10 16 -5 4 5 2 11 -5 13 -6 3 -10 8 -8 11 2 4 -12 7 -33 8 -20 1 -27
-1 -17 -3z"/>
<path d="M2480 2599 c0 -5 5 -7 10 -4 6 3 10 8 10 11 0 2 -4 4 -10 4 -5 0 -10
-5 -10 -11z"/>
<path d="M2298 2573 c7 -3 16 -2 19 1 4 3 -2 6 -13 5 -11 0 -14 -3 -6 -6z"/>
<path d="M2508 2563 c7 -3 16 -2 19 1 4 3 -2 6 -13 5 -11 0 -14 -3 -6 -6z"/>
<path d="M2358 2533 c12 -2 30 -2 40 0 9 3 -1 5 -23 4 -22 0 -30 -2 -17 -4z"/>
<path d="M2217 1278 c-4 -83 -7 -177 -7 -210 l0 -58 61 0 c121 0 191 43 223
136 33 98 11 222 -47 262 -29 19 -46 22 -129 22 l-95 0 -6 -152z"/>
</g>
</svg>
